<svg width="27" height="30" viewBox="0 0 27 30" fill="none" xmlns="http://www.w3.org/2000/svg">
<path d="M19.0556 1V6.55556ZM7.94444 1V6.55556ZM26 14.8889C26 9.65139 26 7.03194 24.3722 5.40556C22.7444 3.77917 20.1264 3.77778 14.8889 3.77778H12.1111C6.87361 3.77778 4.25417 3.77778 2.62778 5.40556C1.00139 7.03333 1 9.65139 1 14.8889V17.6667C1 22.9042 1 25.5236 2.62778 27.15C4.25556 28.7764 6.87361 28.7778 12.1111 28.7778M1 12.1111H26Z" fill="black"/>
<path d="M19.0556 1V6.55556M7.94444 1V6.55556M26 14.8889C26 9.65139 26 7.03194 24.3722 5.40556C22.7444 3.77917 20.1264 3.77778 14.8889 3.77778H12.1111C6.87361 3.77778 4.25417 3.77778 2.62778 5.40556C1.00139 7.03333 1 9.65139 1 14.8889V17.6667C1 22.9042 1 25.5236 2.62778 27.15C4.25556 28.7764 6.87361 28.7778 12.1111 28.7778M1 12.1111H26" stroke="white" stroke-width="1.5" stroke-linecap="round" stroke-linejoin="round"/>
<path d="M22.2042 24.1958L20.4445 23.2222V20.8152M26 23.2222C26 24.6956 25.4147 26.1087 24.3728 27.1506C23.331 28.1924 21.9179 28.7777 20.4445 28.7777C18.971 28.7777 17.558 28.1924 16.5161 27.1506C15.4742 26.1087 14.8889 24.6956 14.8889 23.2222C14.8889 21.7488 15.4742 20.3357 16.5161 19.2938C17.558 18.2519 18.971 17.6666 20.4445 17.6666C21.9179 17.6666 23.331 18.2519 24.3728 19.2938C25.4147 20.3357 26 21.7488 26 23.2222Z" fill="black"/>
<path d="M22.2042 24.1958L20.4445 23.2222V20.8152M26 23.2222C26 24.6956 25.4147 26.1087 24.3728 27.1506C23.331 28.1924 21.9179 28.7777 20.4445 28.7777C18.971 28.7777 17.558 28.1924 16.5161 27.1506C15.4742 26.1087 14.8889 24.6956 14.8889 23.2222C14.8889 21.7488 15.4742 20.3357 16.5161 19.2938C17.558 18.2519 18.971 17.6666 20.4445 17.6666C21.9179 17.6666 23.331 18.2519 24.3728 19.2938C25.4147 20.3357 26 21.7488 26 23.2222Z" stroke="white" stroke-width="1.5" stroke-linecap="round" stroke-linejoin="round"/>
</svg>
