<svg width="17" height="25" viewBox="0 0 17 25" fill="none" xmlns="http://www.w3.org/2000/svg">
<path d="M4.1425 0C3.91044 0 3.68788 0.0921872 3.52378 0.256282C3.35969 0.420376 3.2675 0.642936 3.2675 0.875V23.25H0.875C0.642936 23.25 0.420376 23.3422 0.256282 23.5063C0.0921875 23.6704 0 23.8929 0 24.125C0 24.3571 0.0921875 24.5796 0.256282 24.7437C0.420376 24.9078 0.642936 25 0.875 25H7.125C7.35706 25 7.57962 24.9078 7.74372 24.7437C7.90781 24.5796 8 24.3571 8 24.125C8 23.8929 7.90781 23.6704 7.74372 23.5063C7.57962 23.3422 7.35706 23.25 7.125 23.25H5.0175V11.75H15.7675C15.9996 11.75 16.2221 11.6578 16.3862 11.4937C16.5503 11.3296 16.6425 11.1071 16.6425 10.875V0.875C16.6425 0.642936 16.5503 0.420376 16.3862 0.256282C16.2221 0.0921872 15.9996 0 15.7675 0H4.2675C4.24631 0.000160391 4.22513 0.000994145 4.204 0.0025C4.18353 0.00103582 4.16302 0.000202091 4.1425 0ZM7.5925 1.75H10.0425V3.6075H12.4925V1.75H14.8925V3.6075H12.4925V6.05725H14.8925V8.50725H12.4925V10H10.0425V8.5075H7.5925V10H5.1425V8.5075H7.5925V6.05725H5.1425V3.60725H7.5925V1.75ZM7.5925 3.6075V6.05725H10.0425V3.60725L7.5925 3.6075ZM10.0425 6.05725V8.5075L12.4925 8.50725V6.05725H10.0425Z" fill="black"/>
</svg>
